<svg width="15" height="15" viewBox="0 0 15 15" fill="none" xmlns="http://www.w3.org/2000/svg">
<path d="M12.0375 0.772499H11.9175V0.5625C11.9175 0.255 11.6625 0 11.355 0C11.0475 0 10.7925 0.255 10.7925 0.5625V0.772499H4.2075V0.5625C4.2075 0.255 3.96 0 3.645 0C3.3375 0 3.0825 0.255 3.0825 0.5625V0.772499H2.9625C1.3275 0.772499 0 2.1 0 3.735V12.0375C0 13.6725 1.3275 15 2.9625 15H12.0375C13.6725 15 15 13.6725 15 12.0375V3.735C15 2.1 13.6725 0.772499 12.0375 0.772499ZM3 12.7275C2.5875 12.7275 2.25 12.3975 2.25 11.9775C2.25 11.565 2.5875 11.2275 3 11.2275C3.4125 11.2275 3.75 11.565 3.75 11.9775C3.75 12.3975 3.4125 12.7275 3 12.7275ZM3 10.1175C2.5875 10.1175 2.25 9.78 2.25 9.3675C2.25 8.9475 2.5875 8.6175 3 8.6175C3.4125 8.6175 3.75 8.9475 3.75 9.3675C3.75 9.78 3.4125 10.1175 3 10.1175ZM3 7.5C2.5875 7.5 2.25 7.1625 2.25 6.75C2.25 6.3375 2.5875 6 3 6C3.4125 6 3.75 6.3375 3.75 6.75C3.75 7.1625 3.4125 7.5 3 7.5ZM6 12.7275C5.5875 12.7275 5.25 12.3975 5.25 11.9775C5.25 11.565 5.5875 11.2275 6 11.2275C6.4125 11.2275 6.75 11.565 6.75 11.9775C6.75 12.3975 6.4125 12.7275 6 12.7275ZM6 10.1175C5.5875 10.1175 5.25 9.78 5.25 9.3675C5.25 8.9475 5.5875 8.6175 6 8.6175C6.4125 8.6175 6.75 8.9475 6.75 9.3675C6.75 9.78 6.4125 10.1175 6 10.1175ZM6 7.5C5.5875 7.5 5.25 7.1625 5.25 6.75C5.25 6.3375 5.5875 6 6 6C6.4125 6 6.75 6.3375 6.75 6.75C6.75 7.1625 6.4125 7.5 6 7.5ZM9 12.7275C8.5875 12.7275 8.25 12.3975 8.25 11.9775C8.25 11.565 8.5875 11.2275 9 11.2275C9.4125 11.2275 9.75 11.565 9.75 11.9775C9.75 12.3975 9.4125 12.7275 9 12.7275ZM9 10.1175C8.5875 10.1175 8.25 9.78 8.25 9.3675C8.25 8.9475 8.5875 8.6175 9 8.6175C9.4125 8.6175 9.75 8.9475 9.75 9.3675C9.75 9.78 9.4125 10.1175 9 10.1175ZM9 7.5C8.5875 7.5 8.25 7.1625 8.25 6.75C8.25 6.3375 8.5875 6 9 6C9.4125 6 9.75 6.3375 9.75 6.75C9.75 7.1625 9.4125 7.5 9 7.5ZM12 10.1175C11.5875 10.1175 11.25 9.78 11.25 9.3675C11.25 8.9475 11.5875 8.6175 12 8.6175C12.4125 8.6175 12.75 8.9475 12.75 9.3675C12.75 9.78 12.4125 10.1175 12 10.1175ZM12 7.5C11.5875 7.5 11.25 7.1625 11.25 6.75C11.25 6.3375 11.5875 6 12 6C12.4125 6 12.75 6.3375 12.75 6.75C12.75 7.1625 12.4125 7.5 12 7.5ZM13.875 3.8625H1.125V3.735C1.125 2.7225 1.95 1.8975 2.9625 1.8975H3.0825V2.1075C3.0825 2.4225 3.3375 2.67 3.645 2.67C3.96 2.67 4.2075 2.4225 4.2075 2.1075V1.8975H10.7925V2.1075C10.7925 2.4225 11.0475 2.67 11.355 2.67C11.6625 2.67 11.9175 2.4225 11.9175 2.1075V1.8975H12.0375C13.05 1.8975 13.875 2.7225 13.875 3.735V3.8625Z" fill="#505050"/>
</svg>
