<svg width="334" height="423" viewBox="0 0 334 423" fill="none" xmlns="http://www.w3.org/2000/svg">
<rect x="0.5" y="0.5" width="333" height="421.54" rx="4.5" fill="white" stroke="#EEEEEE"/>
<path d="M0 5C0 2.23857 2.23858 0 5 0H329C331.761 0 334 2.23858 334 5V7.12719H0V5Z" fill="#FFE600"/>
<path d="M0 5C0 2.23857 2.23858 0 5 0H10L6 4.07268L3 7.12719H0V5Z" fill="#494949"/>
<path d="M14.5 2.54542L17 0H24L20 4.07268L17 7.12719H10L14.5 2.54542Z" fill="#494949"/>
<path d="M98.5 2.54542L101 0H108L104 4.07268L101 7.12719H94L98.5 2.54542Z" fill="#494949"/>
<path d="M182.5 2.54542L185 0H192L188 4.07268L185 7.12719H178L182.5 2.54542Z" fill="#494949"/>
<path d="M266.5 2.54542L269 0H276L272 4.07268L269 7.12719H262L266.5 2.54542Z" fill="#494949"/>
<path d="M56.5 2.54542L59 0H66L62 4.07268L59 7.12719H52L56.5 2.54542Z" fill="#494949"/>
<path d="M140.5 2.54542L143 0H150L146 4.07268L143 7.12719H136L140.5 2.54542Z" fill="#494949"/>
<path d="M224.5 2.54542L227 0H234L230 4.07268L227 7.12719H220L224.5 2.54542Z" fill="#494949"/>
<path d="M308.5 2.54542L311 0H318L314 4.07268L311 7.12719H304L308.5 2.54542Z" fill="#494949"/>
<path d="M334 5.09082V7.12716H332L334 5.09082Z" fill="#494949"/>
<path d="M28.5 2.54542L31 0H38L34 4.07268L31 7.12719H24L28.5 2.54542Z" fill="#494949"/>
<path d="M112.5 2.54542L115 0H122L118 4.07268L115 7.12719H108L112.5 2.54542Z" fill="#494949"/>
<path d="M196.5 2.54542L199 0H206L202 4.07268L199 7.12719H192L196.5 2.54542Z" fill="#494949"/>
<path d="M280.5 2.54542L283 0H290L286 4.07268L283 7.12719H276L280.5 2.54542Z" fill="#494949"/>
<path d="M70.5 2.54542L73 0H80L76 4.07268L73 7.12719H66L70.5 2.54542Z" fill="#494949"/>
<path d="M154.5 2.54542L157 0H164L160 4.07268L157 7.12719H150L154.5 2.54542Z" fill="#494949"/>
<path d="M238.5 2.54542L241 0H248L244 4.07268L241 7.12719H234L238.5 2.54542Z" fill="#494949"/>
<path d="M42.5 2.54542L45 0H52L48 4.07268L45 7.12719H38L42.5 2.54542Z" fill="#494949"/>
<path d="M126.5 2.54542L129 0H136L132 4.07268L129 7.12719H122L126.5 2.54542Z" fill="#494949"/>
<path d="M210.5 2.54542L213 0H220L216 4.07268L213 7.12719H206L210.5 2.54542Z" fill="#494949"/>
<path d="M294.5 2.54542L297 0H304L300 4.07268L297 7.12719H290L294.5 2.54542Z" fill="#494949"/>
<path d="M84.5 2.54542L87 0H94L90 4.07268L87 7.12719H80L84.5 2.54542Z" fill="#494949"/>
<path d="M168.5 2.54542L171 0H178L174 4.07268L171 7.12719H164L168.5 2.54542Z" fill="#494949"/>
<path d="M252.5 2.54542L255 0H262L258 4.07268L255 7.12719H248L252.5 2.54542Z" fill="#494949"/>
<path d="M322.5 2.54542L325 0H328.5C328.5 0 329.5 0 330 0C330.5 0 331 0.509085 331 1.01817L330.5 1.52726L330 2.03634L328 4.07268L325 7.12719H318L322.5 2.54542Z" fill="#494949"/>
</svg>
