<svg width="18" height="15" viewBox="0 0 18 15" fill="none" xmlns="http://www.w3.org/2000/svg">
<path d="M6.80572 14.9999C5.79429 14.9999 4.81715 14.7856 3.9 14.357L0.762857 14.8113C0.557142 14.8456 0.36 14.7684 0.214286 14.6313C0.0685714 14.4856 -5.75398e-06 14.2799 0.03428 14.0827L0.514291 10.9027C0.171434 10.0799 0 9.22273 0 8.35702C0 6.62559 0.677139 4.97988 1.91143 3.73702C2.16 3.47988 2.57142 3.48845 2.81999 3.73702C3.06857 3.98559 3.07714 4.39702 2.81999 4.64559C1.82571 5.64845 1.27715 6.95988 1.27715 8.35702C1.27715 9.10273 1.44 9.84845 1.76571 10.5599C1.83428 10.7056 1.84285 10.8684 1.79143 11.0227L1.43143 13.4227L3.90857 13.0627C4.03714 13.0456 4.16571 13.0627 4.28571 13.1227C5.24571 13.6027 6.31714 13.7913 7.35429 13.6884C7.69714 13.6456 8.02285 13.9113 8.05714 14.2627C8.09142 14.6142 7.83428 14.9313 7.48285 14.9656C7.26857 14.9913 7.03715 14.9999 6.80572 14.9999Z" fill="#505050"/>
<path d="M17.1514 6.64286C17.1514 2.98286 14.0914 0 10.3371 0C8.49429 0 6.78 0.702857 5.51143 1.96286C4.23429 3.22286 3.53143 4.87714 3.53143 6.64286C3.53143 10.3029 6.58286 13.2857 10.3371 13.2857C10.68 13.2857 11.0057 13.26 11.28 13.2171C11.2886 13.2171 11.3057 13.2171 11.3143 13.2086C11.9914 13.1143 12.6343 12.9257 13.2429 12.6429L16.38 13.0971C16.5857 13.1314 16.7829 13.0629 16.9286 12.9171C17.0657 12.7714 17.1343 12.5657 17.1086 12.3686L16.6286 9.18C16.9714 8.36571 17.1514 7.50857 17.1514 6.64286ZM8.23715 6.85714C8.15144 7.12286 7.8943 7.31143 7.5943 7.31143C7.21715 7.31143 6.90858 7.01143 6.90858 6.64286C6.90858 6.27429 7.21715 5.97429 7.5943 5.97429C7.67144 5.97429 7.74001 5.98286 7.80858 6.00857C8.08287 6.09429 8.28001 6.35143 8.28001 6.64286C8.28001 6.72 8.26287 6.78857 8.23715 6.85714ZM10.3371 7.31143C9.96001 7.31143 9.65143 7.01143 9.65143 6.64286C9.65143 6.27429 9.96001 5.97429 10.3371 5.97429C10.7143 5.97429 11.0229 6.27429 11.0229 6.64286C11.0229 7.01143 10.7143 7.31143 10.3371 7.31143ZM13.08 7.31143C12.7029 7.31143 12.3943 7.01143 12.3943 6.64286C12.3943 6.27429 12.7029 5.97429 13.08 5.97429C13.4571 5.97429 13.7657 6.27429 13.7657 6.64286C13.7657 7.01143 13.4571 7.31143 13.08 7.31143Z" fill="#505050"/>
</svg>
