<svg width="20" height="20" viewBox="0 0 20 20" fill="none" xmlns="http://www.w3.org/2000/svg">
<path fill-rule="evenodd" clip-rule="evenodd" d="M5 0C2.23858 0 0 2.23858 0 5V15C0 17.7614 2.23858 20 5 20H15C17.7614 20 20 17.7614 20 15V5C20 2.23858 17.7614 0 15 0H5ZM5 15V12.9167L11.1444 6.77222L13.2278 8.85555L7.08333 15H5ZM14.8389 6.46111C15.0556 6.67777 15.0556 7.02777 14.8389 7.24444L13.8222 8.26111L11.7389 6.17777L12.7556 5.16111C12.9722 4.94444 13.3222 4.94444 13.5389 5.16111L14.8389 6.46111Z" fill="#0A6CFF"/>
</svg>
