<svg width="334" height="385" viewBox="0 0 334 385" fill="none" xmlns="http://www.w3.org/2000/svg">
<rect x="0.5" y="0.5" width="333" height="384" rx="4.5" fill="white" stroke="#EEEEEE"/>
<path d="M0 5C0 2.23858 2.23858 0 5 0H329C331.761 0 334 2.23858 334 5V7H0V5Z" fill="#FFE600"/>
<path d="M0 5C0 2.23858 2.23858 0 5 0H10L6 4L3 7H0V5Z" fill="#494949"/>
<path d="M14.5 2.5L17 0H24L20 4L17 7H10L14.5 2.5Z" fill="#494949"/>
<path d="M98.5 2.5L101 0H108L104 4L101 7H94L98.5 2.5Z" fill="#494949"/>
<path d="M182.5 2.5L185 0H192L188 4L185 7H178L182.5 2.5Z" fill="#494949"/>
<path d="M266.5 2.5L269 0H276L272 4L269 7H262L266.5 2.5Z" fill="#494949"/>
<path d="M56.5 2.5L59 0H66L62 4L59 7H52L56.5 2.5Z" fill="#494949"/>
<path d="M140.5 2.5L143 0H150L146 4L143 7H136L140.5 2.5Z" fill="#494949"/>
<path d="M224.5 2.5L227 0H234L230 4L227 7H220L224.5 2.5Z" fill="#494949"/>
<path d="M308.5 2.5L311 0H318L314 4L311 7H304L308.5 2.5Z" fill="#494949"/>
<path d="M334 5V7H332L334 5Z" fill="#494949"/>
<path d="M28.5 2.5L31 0H38L34 4L31 7H24L28.5 2.5Z" fill="#494949"/>
<path d="M112.5 2.5L115 0H122L118 4L115 7H108L112.5 2.5Z" fill="#494949"/>
<path d="M196.5 2.5L199 0H206L202 4L199 7H192L196.5 2.5Z" fill="#494949"/>
<path d="M280.5 2.5L283 0H290L286 4L283 7H276L280.5 2.5Z" fill="#494949"/>
<path d="M70.5 2.5L73 0H80L76 4L73 7H66L70.5 2.5Z" fill="#494949"/>
<path d="M154.5 2.5L157 0H164L160 4L157 7H150L154.5 2.5Z" fill="#494949"/>
<path d="M238.5 2.5L241 0H248L244 4L241 7H234L238.5 2.5Z" fill="#494949"/>
<path d="M42.5 2.5L45 0H52L48 4L45 7H38L42.5 2.5Z" fill="#494949"/>
<path d="M126.5 2.5L129 0H136L132 4L129 7H122L126.5 2.5Z" fill="#494949"/>
<path d="M210.5 2.5L213 0H220L216 4L213 7H206L210.5 2.5Z" fill="#494949"/>
<path d="M294.5 2.5L297 0H304L300 4L297 7H290L294.5 2.5Z" fill="#494949"/>
<path d="M84.5 2.5L87 0H94L90 4L87 7H80L84.5 2.5Z" fill="#494949"/>
<path d="M168.5 2.5L171 0H178L174 4L171 7H164L168.5 2.5Z" fill="#494949"/>
<path d="M252.5 2.5L255 0H262L258 4L255 7H248L252.5 2.5Z" fill="#494949"/>
<path d="M322.5 2.5L325 0H328.5C328.5 0 329.5 0 330 0C330.5 0 331 0.5 331 1L330.5 1.5L330 2L328 4L325 7H318L322.5 2.5Z" fill="#494949"/>
</svg>
