<svg width="334" height="245" viewBox="0 0 334 245" fill="none" xmlns="http://www.w3.org/2000/svg">
<rect x="0.5" y="0.5" width="333" height="244" rx="4.5" fill="white" stroke="#EEEEEE"/>
<path d="M0 5C0 2.23857 2.23858 0 5 0H329C331.761 0 334 2.23858 334 5V7.48908H0V5Z" fill="#FFE600"/>
<path d="M0 5C0 2.23857 2.23858 0 5 0H10L6 4.27948L3 7.48908H0V5Z" fill="#494949"/>
<path d="M14.5 2.67467L17 0H24L20 4.27948L17 7.48908H10L14.5 2.67467Z" fill="#494949"/>
<path d="M98.5 2.67467L101 0H108L104 4.27948L101 7.48908H94L98.5 2.67467Z" fill="#494949"/>
<path d="M182.5 2.67467L185 0H192L188 4.27948L185 7.48908H178L182.5 2.67467Z" fill="#494949"/>
<path d="M266.5 2.67467L269 0H276L272 4.27948L269 7.48908H262L266.5 2.67467Z" fill="#494949"/>
<path d="M56.5 2.67467L59 0H66L62 4.27948L59 7.48908H52L56.5 2.67467Z" fill="#494949"/>
<path d="M140.5 2.67467L143 0H150L146 4.27948L143 7.48908H136L140.5 2.67467Z" fill="#494949"/>
<path d="M224.5 2.67467L227 0H234L230 4.27948L227 7.48908H220L224.5 2.67467Z" fill="#494949"/>
<path d="M308.5 2.67467L311 0H318L314 4.27948L311 7.48908H304L308.5 2.67467Z" fill="#494949"/>
<path d="M334 5.34937V7.4891H332L334 5.34937Z" fill="#494949"/>
<path d="M28.5 2.67467L31 0H38L34 4.27948L31 7.48908H24L28.5 2.67467Z" fill="#494949"/>
<path d="M112.5 2.67467L115 0H122L118 4.27948L115 7.48908H108L112.5 2.67467Z" fill="#494949"/>
<path d="M196.5 2.67467L199 0H206L202 4.27948L199 7.48908H192L196.5 2.67467Z" fill="#494949"/>
<path d="M280.5 2.67467L283 0H290L286 4.27948L283 7.48908H276L280.5 2.67467Z" fill="#494949"/>
<path d="M70.5 2.67467L73 0H80L76 4.27948L73 7.48908H66L70.5 2.67467Z" fill="#494949"/>
<path d="M154.5 2.67467L157 0H164L160 4.27948L157 7.48908H150L154.5 2.67467Z" fill="#494949"/>
<path d="M238.5 2.67467L241 0H248L244 4.27948L241 7.48908H234L238.5 2.67467Z" fill="#494949"/>
<path d="M42.5 2.67467L45 0H52L48 4.27948L45 7.48908H38L42.5 2.67467Z" fill="#494949"/>
<path d="M126.5 2.67467L129 0H136L132 4.27948L129 7.48908H122L126.5 2.67467Z" fill="#494949"/>
<path d="M210.5 2.67467L213 0H220L216 4.27948L213 7.48908H206L210.5 2.67467Z" fill="#494949"/>
<path d="M294.5 2.67467L297 0H304L300 4.27948L297 7.48908H290L294.5 2.67467Z" fill="#494949"/>
<path d="M84.5 2.67467L87 0H94L90 4.27948L87 7.48908H80L84.5 2.67467Z" fill="#494949"/>
<path d="M168.5 2.67467L171 0H178L174 4.27948L171 7.48908H164L168.5 2.67467Z" fill="#494949"/>
<path d="M252.5 2.67467L255 0H262L258 4.27948L255 7.48908H248L252.5 2.67467Z" fill="#494949"/>
<path d="M322.5 2.67467L325 0H328.5C328.5 0 329.5 0 330 0C330.5 0 331 0.534934 331 1.06987L330.5 1.6048L330 2.13974L328 4.27948L325 7.48908H318L322.5 2.67467Z" fill="#494949"/>
</svg>
