<svg width="334" height="437" viewBox="0 0 334 437" fill="none" xmlns="http://www.w3.org/2000/svg">
<rect x="0.5" y="0.5" width="333" height="435.558" rx="4.5" fill="white" stroke="#EEEEEE"/>
<path d="M0 5C0 2.23858 2.23858 0 5 0H329C331.761 0 334 2.23858 334 5V7.36364H0V5Z" fill="#FFE600"/>
<path d="M0 5C0 2.23858 2.23858 0 5 0H10L6 4.20779L3 7.36364H0V5Z" fill="#494949"/>
<path d="M14.5 2.62987L17 0H24L20 4.20779L17 7.36364H10L14.5 2.62987Z" fill="#494949"/>
<path d="M98.5 2.62987L101 0H108L104 4.20779L101 7.36364H94L98.5 2.62987Z" fill="#494949"/>
<path d="M182.5 2.62987L185 0H192L188 4.20779L185 7.36364H178L182.5 2.62987Z" fill="#494949"/>
<path d="M266.5 2.62987L269 0H276L272 4.20779L269 7.36364H262L266.5 2.62987Z" fill="#494949"/>
<path d="M56.5 2.62987L59 0H66L62 4.20779L59 7.36364H52L56.5 2.62987Z" fill="#494949"/>
<path d="M140.5 2.62987L143 0H150L146 4.20779L143 7.36364H136L140.5 2.62987Z" fill="#494949"/>
<path d="M224.5 2.62987L227 0H234L230 4.20779L227 7.36364H220L224.5 2.62987Z" fill="#494949"/>
<path d="M308.5 2.62987L311 0H318L314 4.20779L311 7.36364H304L308.5 2.62987Z" fill="#494949"/>
<path d="M334 5.25977V7.36366H332L334 5.25977Z" fill="#494949"/>
<path d="M28.5 2.62987L31 0H38L34 4.20779L31 7.36364H24L28.5 2.62987Z" fill="#494949"/>
<path d="M112.5 2.62987L115 0H122L118 4.20779L115 7.36364H108L112.5 2.62987Z" fill="#494949"/>
<path d="M196.5 2.62987L199 0H206L202 4.20779L199 7.36364H192L196.5 2.62987Z" fill="#494949"/>
<path d="M280.5 2.62987L283 0H290L286 4.20779L283 7.36364H276L280.5 2.62987Z" fill="#494949"/>
<path d="M70.5 2.62987L73 0H80L76 4.20779L73 7.36364H66L70.5 2.62987Z" fill="#494949"/>
<path d="M154.5 2.62987L157 0H164L160 4.20779L157 7.36364H150L154.5 2.62987Z" fill="#494949"/>
<path d="M238.5 2.62987L241 0H248L244 4.20779L241 7.36364H234L238.5 2.62987Z" fill="#494949"/>
<path d="M42.5 2.62987L45 0H52L48 4.20779L45 7.36364H38L42.5 2.62987Z" fill="#494949"/>
<path d="M126.5 2.62987L129 0H136L132 4.20779L129 7.36364H122L126.5 2.62987Z" fill="#494949"/>
<path d="M210.5 2.62987L213 0H220L216 4.20779L213 7.36364H206L210.5 2.62987Z" fill="#494949"/>
<path d="M294.5 2.62987L297 0H304L300 4.20779L297 7.36364H290L294.5 2.62987Z" fill="#494949"/>
<path d="M84.5 2.62987L87 0H94L90 4.20779L87 7.36364H80L84.5 2.62987Z" fill="#494949"/>
<path d="M168.5 2.62987L171 0H178L174 4.20779L171 7.36364H164L168.5 2.62987Z" fill="#494949"/>
<path d="M252.5 2.62987L255 0H262L258 4.20779L255 7.36364H248L252.5 2.62987Z" fill="#494949"/>
<path d="M322.5 2.62987L325 0H328.5C328.5 0 329.5 0 330 0C330.5 0 331 0.525974 331 1.05195L330.5 1.57792L330 2.1039L328 4.20779L325 7.36364H318L322.5 2.62987Z" fill="#494949"/>
</svg>
