<svg width="180" height="640" viewBox="0 0 180 640" fill="none" xmlns="http://www.w3.org/2000/svg">
<rect width="180" height="640" fill="#FFE600"/>
<path d="M0 634L1 633H8L4 637L1 640H0V634Z" fill="#494949"/>
<path d="M12.5 635.5L15 633H22L18 637L15 640H8L12.5 635.5Z" fill="#494949"/>
<path d="M26.5 635.5L29 633H36L32 637L29 640H22L26.5 635.5Z" fill="#494949"/>
<path d="M40.5 635.5L43 633H50L46 637L43 640H36L40.5 635.5Z" fill="#494949"/>
<path d="M54.5 635.5L57 633H64L60 637L57 640H50L54.5 635.5Z" fill="#494949"/>
<path d="M68.5 635.5L71 633H78L74 637L71 640H64L68.5 635.5Z" fill="#494949"/>
<path d="M82.5 635.5L85 633H92L88 637L85 640H78L82.5 635.5Z" fill="#494949"/>
<path d="M96.5 635.5L99 633H106L102 637L99 640H92L96.5 635.5Z" fill="#494949"/>
<path d="M110.5 635.5L113 633H120L116 637L113 640H106L110.5 635.5Z" fill="#494949"/>
<path d="M124.5 635.5L127 633H134L130 637L127 640H120L124.5 635.5Z" fill="#494949"/>
<path d="M138.5 635.5L141 633H148L144 637L141 640H134L138.5 635.5Z" fill="#494949"/>
<path d="M152.5 635.5L155 633H162L158 637L155 640H148L152.5 635.5Z" fill="#494949"/>
<path d="M166.5 635.5L169 633H176L172 637L169 640H162L166.5 635.5Z" fill="#494949"/>
<path d="M180 636V640H176L180 636Z" fill="#494949"/>
</svg>
