<svg width="16" height="15" viewBox="0 0 16 15" fill="none" xmlns="http://www.w3.org/2000/svg">
<path d="M0.320989 2.40951C0.430076 1.30045 1.30278 0.427765 2.40275 0.318678L5.6299 0.00960042C6.35715 -0.0540338 7.05711 0.200502 7.57527 0.718667L14.2841 7.42754C14.7387 7.88207 14.9932 8.47294 15.0023 9.10928C15.0114 9.74562 14.775 10.3365 14.3205 10.791L10.7934 14.3182C10.357 14.7636 9.76612 15 9.14796 15H9.11159C8.47525 14.9909 7.88438 14.7364 7.42985 14.2818L0.720978 7.57296C0.202813 7.0548 -0.0608139 6.34575 0.0119114 5.63669L0.320989 2.40951ZM4.80265 3.43675C4.42994 3.05494 3.81178 3.05494 3.43906 3.43675C3.05725 3.80946 3.05725 4.42762 3.43906 4.80034C3.62087 4.99124 3.87541 5.09125 4.12086 5.09125C4.3663 5.09125 4.62084 4.99124 4.80265 4.80034C5.18446 4.42762 5.18446 3.80946 4.80265 3.43675Z" fill="#505050"/>
</svg>
