<svg width="334" height="247" viewBox="0 0 334 247" fill="none" xmlns="http://www.w3.org/2000/svg">
<rect x="0.5" y="0.5" width="333" height="246" rx="4.5" fill="white" stroke="#EEEEEE"/>
<path d="M0 5C0 2.23858 2.23858 0 5 0H329C331.761 0 334 2.23858 334 5V7.55022H0V5Z" fill="#FFE600"/>
<path d="M0 5C0 2.23858 2.23858 0 5 0H10L6 4.31441L3 7.55022H0V5Z" fill="#494949"/>
<path d="M14.5 2.69651L17 0H24L20 4.31441L17 7.55022H10L14.5 2.69651Z" fill="#494949"/>
<path d="M98.5 2.69651L101 0H108L104 4.31441L101 7.55022H94L98.5 2.69651Z" fill="#494949"/>
<path d="M182.5 2.69651L185 0H192L188 4.31441L185 7.55022H178L182.5 2.69651Z" fill="#494949"/>
<path d="M266.5 2.69651L269 0H276L272 4.31441L269 7.55022H262L266.5 2.69651Z" fill="#494949"/>
<path d="M56.5 2.69651L59 0H66L62 4.31441L59 7.55022H52L56.5 2.69651Z" fill="#494949"/>
<path d="M140.5 2.69651L143 0H150L146 4.31441L143 7.55022H136L140.5 2.69651Z" fill="#494949"/>
<path d="M224.5 2.69651L227 0H234L230 4.31441L227 7.55022H220L224.5 2.69651Z" fill="#494949"/>
<path d="M308.5 2.69651L311 0H318L314 4.31441L311 7.55022H304L308.5 2.69651Z" fill="#494949"/>
<path d="M334 5.39301V7.55021H332L334 5.39301Z" fill="#494949"/>
<path d="M28.5 2.69651L31 0H38L34 4.31441L31 7.55022H24L28.5 2.69651Z" fill="#494949"/>
<path d="M112.5 2.69651L115 0H122L118 4.31441L115 7.55022H108L112.5 2.69651Z" fill="#494949"/>
<path d="M196.5 2.69651L199 0H206L202 4.31441L199 7.55022H192L196.5 2.69651Z" fill="#494949"/>
<path d="M280.5 2.69651L283 0H290L286 4.31441L283 7.55022H276L280.5 2.69651Z" fill="#494949"/>
<path d="M70.5 2.69651L73 0H80L76 4.31441L73 7.55022H66L70.5 2.69651Z" fill="#494949"/>
<path d="M154.5 2.69651L157 0H164L160 4.31441L157 7.55022H150L154.5 2.69651Z" fill="#494949"/>
<path d="M238.5 2.69651L241 0H248L244 4.31441L241 7.55022H234L238.5 2.69651Z" fill="#494949"/>
<path d="M42.5 2.69651L45 0H52L48 4.31441L45 7.55022H38L42.5 2.69651Z" fill="#494949"/>
<path d="M126.5 2.69651L129 0H136L132 4.31441L129 7.55022H122L126.5 2.69651Z" fill="#494949"/>
<path d="M210.5 2.69651L213 0H220L216 4.31441L213 7.55022H206L210.5 2.69651Z" fill="#494949"/>
<path d="M294.5 2.69651L297 0H304L300 4.31441L297 7.55022H290L294.5 2.69651Z" fill="#494949"/>
<path d="M84.5 2.69651L87 0H94L90 4.31441L87 7.55022H80L84.5 2.69651Z" fill="#494949"/>
<path d="M168.5 2.69651L171 0H178L174 4.31441L171 7.55022H164L168.5 2.69651Z" fill="#494949"/>
<path d="M252.5 2.69651L255 0H262L258 4.31441L255 7.55022H248L252.5 2.69651Z" fill="#494949"/>
<path d="M322.5 2.69651L325 0H328.5C328.5 0 329.5 0 330 0C330.5 0 331 0.539301 331 1.0786L330.5 1.6179L330 2.15721L328 4.31441L325 7.55022H318L322.5 2.69651Z" fill="#494949"/>
</svg>
