<svg width="15" height="15" viewBox="0 0 15 15" fill="none" xmlns="http://www.w3.org/2000/svg">
<g clip-path="url(#clip0_0_151)">
<path d="M13.125 5V4.375L11.25 5.625L9.375 4.375V5L11.25 6.25L13.125 5ZM13.75 1.875H1.25C0.5625 1.875 0 2.4375 0 3.125V11.875C0 12.5625 0.5625 13.125 1.25 13.125H13.75C14.4375 13.125 14.9937 12.5625 14.9937 11.875L15 3.125C15 2.4375 14.4375 1.875 13.75 1.875ZM5 3.75C6.0375 3.75 6.875 4.5875 6.875 5.625C6.875 6.6625 6.0375 7.5 5 7.5C3.9625 7.5 3.125 6.6625 3.125 5.625C3.125 4.5875 3.9625 3.75 5 3.75ZM8.75 11.25H1.25V10.625C1.25 9.375 3.75 8.6875 5 8.6875C6.25 8.6875 8.75 9.375 8.75 10.625V11.25ZM13.75 7.5H8.75V3.75H13.75V7.5Z" fill="#323232"/>
</g>
<defs>
<clipPath id="clip0_0_151">
<rect width="15" height="15" fill="white"/>
</clipPath>
</defs>
</svg>
