<svg width="50" height="50" viewBox="0 0 50 50" fill="none" xmlns="http://www.w3.org/2000/svg">
<path d="M39.7292 10.2708C35.9583 6.50001 30.75 4.16669 25 4.16669C19.25 4.16669 14.0416 6.50001 10.2708 10.2708C6.49997 14.0417 4.16666 19.25 4.16666 25C4.16666 36.5 13.5 45.8334 25 45.8334C30.75 45.8334 35.9583 43.5 39.7292 39.7292C43.5 35.9584 45.8333 30.75 45.8333 25C45.8333 19.25 43.5 14.0417 39.7292 10.2708ZM31.9792 26.5L22.1458 31.5417C21.9167 31.6667 21.6458 31.7292 21.375 31.7292C21.0833 31.7292 20.7708 31.6458 20.5 31.4792C20 31.1667 19.6875 30.625 19.6875 30.0417V19.9583C19.6875 19.375 20 18.8334 20.5 18.5209C21 18.2084 21.625 18.1875 22.1458 18.4583L31.9792 23.5C32.5625 23.7917 32.8958 24.3542 32.8958 25C32.8958 25.6459 32.5625 26.2084 31.9792 26.5Z" fill="#2C2C2C"/>
</svg>
