<svg width="15" height="15" viewBox="0 0 15 15" fill="none" xmlns="http://www.w3.org/2000/svg">
<g clip-path="url(#clip0_0_130)">
<path d="M10.625 1.875H3.125C2.43125 1.875 1.875 2.4375 1.875 3.125V11.875C1.875 12.5625 2.43125 13.125 3.125 13.125H11.875C12.5625 13.125 13.125 12.5625 13.125 11.875V4.375L10.625 1.875ZM7.5 11.875C6.4625 11.875 5.625 11.0375 5.625 10C5.625 8.9625 6.4625 8.125 7.5 8.125C8.5375 8.125 9.375 8.9625 9.375 10C9.375 11.0375 8.5375 11.875 7.5 11.875ZM9.375 5.625H3.125V3.125H9.375V5.625Z" fill="white"/>
</g>
<defs>
<clipPath id="clip0_0_130">
<rect width="15" height="15" fill="white"/>
</clipPath>
</defs>
</svg>
