<svg width="20" height="20" viewBox="0 0 20 20" fill="none" xmlns="http://www.w3.org/2000/svg">
<path fill-rule="evenodd" clip-rule="evenodd" d="M5 0C2.23858 0 0 2.23858 0 5V15C0 17.7614 2.23858 20 5 20H15C17.7614 20 20 17.7614 20 15V5C20 2.23858 17.7614 0 15 0H5ZM12.2603 11.7191H12.8626L16.6667 15.5308L15.5308 16.6667L11.7191 12.8626V12.2603L11.5132 12.0469C10.6442 12.794 9.51591 13.2438 8.28855 13.2438C5.55174 13.2438 3.33333 11.0253 3.33333 8.28855C3.33333 5.55174 5.55174 3.33333 8.28855 3.33333C11.0253 3.33333 13.2438 5.55174 13.2438 8.28855C13.2438 9.51591 12.794 10.6442 12.0469 11.5132L12.2603 11.7191ZM4.85801 8.28855C4.85801 10.1868 6.39032 11.7191 8.28855 11.7191C10.1868 11.7191 11.7191 10.1868 11.7191 8.28855C11.7191 6.39032 10.1868 4.85801 8.28855 4.85801C6.39032 4.85801 4.85801 6.39032 4.85801 8.28855Z" fill="#FF710A"/>
</svg>
