<svg width="8" height="8" viewBox="0 0 8 8" fill="none" xmlns="http://www.w3.org/2000/svg">
<path fill-rule="evenodd" clip-rule="evenodd" d="M2 0C0.895431 0 0 0.895431 0 2V6C0 7.10457 0.895431 8 2 8H6C7.10457 8 8 7.10457 8 6V2C8 0.895431 7.10457 0 6 0H2ZM7.03033 1.80301C7.32323 2.09591 7.32323 2.57078 7.03033 2.86367L3.697 6.19701C3.40411 6.4899 2.92923 6.4899 2.63634 6.19701L2.63474 6.1954L0.96967 4.53033C0.676777 4.23744 0.676777 3.76256 0.96967 3.46967C1.26256 3.17678 1.73744 3.17678 2.03033 3.46967L3.16667 4.60601L5.96968 1.80301C6.26257 1.51012 6.73744 1.51012 7.03033 1.80301Z" fill="#0A6CFF"/>
</svg>
