<svg width="15" height="15" viewBox="0 0 15 15" fill="none" xmlns="http://www.w3.org/2000/svg">
<path d="M0 1.66667V13.3333C0 14.25 0.741667 15 1.66667 15H13.3333C14.25 15 15 14.25 15 13.3333V1.66667C15 0.75 14.25 0 13.3333 0H1.66667C0.741667 0 0 0.75 0 1.66667ZM10 5C10 6.38333 8.88333 7.5 7.5 7.5C6.11667 7.5 5 6.38333 5 5C5 3.61667 6.11667 2.5 7.5 2.5C8.88333 2.5 10 3.61667 10 5ZM2.5 11.6667C2.5 10 5.83333 9.08333 7.5 9.08333C9.16667 9.08333 12.5 10 12.5 11.6667V12.5H2.5V11.6667Z" fill="white"/>
</svg>
