<svg width="24" height="24" viewBox="0 0 24 24" fill="none" xmlns="http://www.w3.org/2000/svg">
<path d="M22 5.59995V18.4C21.9584 19.3903 21.5273 20.3241 20.8007 20.9983C20.0741 21.6725 19.1107 22.0325 18.12 22H12C11.8011 22 11.6103 21.9209 11.4697 21.7803C11.329 21.6396 11.25 21.4489 11.25 21.25V17.7299C11.608 17.6723 11.9378 17.5004 12.19 17.2399L12.5 16.9399L13.25 16.1999L14.25 15.1999L15.25 14.1999L15.99 13.4599C16.2066 13.2607 16.398 13.0357 16.56 12.7899C16.7141 12.5229 16.7903 12.2181 16.78 11.9099C16.7638 11.4977 16.6087 11.103 16.34 10.7899C16.2954 10.7287 16.2452 10.6718 16.19 10.6199L15.58 10.0099L14.69 9.12995L13.69 8.12995C13.4 7.84995 13.12 7.56995 12.84 7.27995L12.3 6.74995L12.21 6.65995C11.9522 6.40153 11.62 6.23021 11.26 6.16995V2.74995C11.26 2.55276 11.3376 2.36349 11.4761 2.22312C11.6146 2.08276 11.8028 2.00258 12 1.99995H18.12C19.1107 1.96744 20.0741 2.32743 20.8007 3.00161C21.5273 3.67579 21.9584 4.60962 22 5.59995Z" fill="black"/>
<path d="M2.75 12H15" stroke="black" stroke-width="1.5" stroke-linecap="round" stroke-linejoin="round"/>
<path d="M15 12L11 8" stroke="black" stroke-width="1.5" stroke-linecap="round" stroke-linejoin="round"/>
<path d="M15 12L11 16" stroke="black" stroke-width="1.5" stroke-linecap="round" stroke-linejoin="round"/>
</svg>
