<svg width="20" height="20" viewBox="0 0 20 20" fill="none" xmlns="http://www.w3.org/2000/svg">
<path fill-rule="evenodd" clip-rule="evenodd" d="M5 0C2.23858 0 0 2.23858 0 5V15C0 17.7614 2.23858 20 5 20H15C17.7614 20 20 17.7614 20 15V5C20 2.23858 17.7614 0 15 0H5ZM12.581 5.751H15.063C15.2953 5.751 15.488 5.938 15.488 6.176C15.488 6.40833 15.2953 6.601 15.063 6.601H14.213V13.7467C14.213 14.625 13.499 15.3333 12.6263 15.3333H8.00234C7.124 15.3333 6.41001 14.625 6.41001 13.7467V6.601H5.75833C5.526 6.601 5.33333 6.40833 5.33333 6.176C5.33333 5.938 5.526 5.751 5.75833 5.751H8.24034V4.425C8.24034 4.19267 8.433 4 8.66534 4H12.156C12.394 4 12.581 4.19267 12.581 4.425V5.751ZM8.81834 8.39733V12.585C8.81834 12.8173 9.01101 13.01 9.24334 13.01C9.48134 13.01 9.66834 12.8173 9.66834 12.585V8.39733C9.66834 8.165 9.48134 7.97233 9.24334 7.97233C9.01101 7.97233 8.81834 8.165 8.81834 8.39733ZM11.578 13.01C11.8103 13.01 12.003 12.8173 12.003 12.585V8.39733C12.003 8.15933 11.8103 7.97233 11.578 7.97233C11.34 7.97233 11.153 8.15933 11.153 8.39733V12.585C11.153 12.8173 11.34 13.01 11.578 13.01ZM11.731 4.85H9.09034V5.751H11.731V4.85Z" fill="#CF0C00"/>
</svg>
